<?xml version="1.0" encoding="utf-8"?>
<!-- Generator: Adobe Illustrator 16.0.0, SVG Export Plug-In . SVG Version: 6.00 Build 0)  -->
<!DOCTYPE svg PUBLIC "-//W3C//DTD SVG 1.1//EN" "http://www.w3.org/Graphics/SVG/1.1/DTD/svg11.dtd">
<svg version="1.1" id="Livello_1" xmlns="http://www.w3.org/2000/svg" xmlns:xlink="http://www.w3.org/1999/xlink" x="0px" y="0px"
	 width="960px" height="560px" viewBox="0 0 960 560" enable-background="new 0 0 960 560" xml:space="preserve">
<g>
	<path fill="#FFA6DC" stroke="#000000" stroke-miterlimit="10" d="M693.825,795.124c-0.189,0.063-0.404,0.114-0.606,0.177
		c0.052,0,0.102-0.013,0.153-0.025c0.113-0.025,0.239-0.05,0.364-0.101c0.052-0.014,0.089-0.038,0.14-0.063
		C693.863,795.111,693.838,795.124,693.825,795.124z M692.083,795.516c-0.088,0.012-0.164,0.037-0.253,0.037
		c-0.089,0.025-0.176,0.039-0.277,0.039v0.012c0,0,0.013,0.013,0.026,0c0.15-0.012,0.315-0.037,0.466-0.063
		c0.101,0,0.202-0.025,0.315-0.051C692.271,795.503,692.185,795.516,692.083,795.516z M703.045,783.671
		c-0.014-0.215-0.053-0.429-0.102-0.644c-0.014-0.102-0.052-0.189-0.064-0.277c-0.051-0.203-0.125-0.404-0.214-0.619
		c-0.063-0.164-0.139-0.342-0.215-0.506c-0.037-0.088-0.076-0.176-0.126-0.253c-0.013-0.036-0.052-0.05-0.089-0.087
		c-0.089-0.063-0.202-0.113-0.278-0.164c0,0.012,0,0.024,0.014,0.037c0,0.037,0.025,0.076,0.038,0.127
		c0.126,0.289,0.227,0.593,0.315,0.908c0.304,1.073,0.365,2.248,0.202,3.41c-0.052,0.402-0.113,0.795-0.24,1.212
		c-0.102,0.417-0.229,0.808-0.391,1.225c-0.077,0.19-0.178,0.392-0.267,0.593c-0.102,0.189-0.202,0.38-0.315,0.581
		c-0.037,0.101-0.089,0.19-0.15,0.291c-0.052,0.101-0.128,0.202-0.19,0.304c-0.87,1.325-2.071,2.563-3.586,3.573
		c-0.595,0.378-1.149,0.706-1.691,0.997c-0.166,0.076-0.316,0.139-0.469,0.215c-0.101,0.051-0.215,0.102-0.316,0.152
		c0.886-0.354,1.744-0.797,2.614-1.364c2.817-1.856,4.735-4.47,5.354-7.085c0.089-0.378,0.152-0.744,0.178-1.11
		C703.106,784.681,703.106,784.163,703.045,783.671z M698.524,777.635c-0.441-0.126-0.827-0.201-1.308-0.252
		c-0.178-0.025-0.319-0.038-0.495-0.051c0.049,0,0.117,0.013,0.154,0.025c0.67,0.076,1.134,0.227,1.64,0.455
		c0.037,0.012-0.016,0.037-0.016,0.051v-0.203C698.5,777.648,698.562,777.635,698.524,777.635z M696.124,777.295v0.012
		c0.013,0,0.013-0.012,0.013-0.012H696.124z M696.477,777.307c-0.101-0.012-0.202-0.012-0.29-0.012h-0.05l0.012,0.012
		c0.113,0,0.215,0,0.304,0.012h0.076c0.075,0,0.15,0,0.228,0.014C696.667,777.307,696.565,777.295,696.477,777.307z
		 M672.441,780.627c-0.037-0.328-0.091-0.668-0.18-0.959c-0.025-0.113-0.053-0.227-0.09-0.328c-0.063-0.164-0.128-0.303-0.203-0.404
		c-0.051-0.063-0.102-0.113-0.127-0.152c-0.014-0.012-0.025-0.023-0.038-0.023l-0.013-0.014c-0.013-0.013-0.025-0.123-0.038-0.136
		c-0.025,0-0.038-0.11-0.063-0.11h-0.013c-0.012,0-0.012,0-0.037,0c0.126,1,0.252,0.867,0.353,1.133
		c0.102,0.266,0.178,0.517,0.253,0.692c0.025,0.039,0.038,0.102,0.051,0.14c0.025,0.037,0.051,0.1,0.063,0.15
		c0.024,0.076,0.076,0.145,0.089,0.221c0,0.025,0.052,0.057,0.052,0.082c0,0,0,0,0,0.013c0,0,0,0.013,0,0.024
		c0,0.014-0.014,0.026-0.014,0.039c0,0.012,0.014,0.025,0,0.037c0.014,0.025,0.014,0.039,0.014,0.051v0.013c0,0.013,0,0.013,0,0.026
		v0.012v-0.012C672.5,780.955,672.467,780.791,672.441,780.627z M665.881,775.261h-0.05v-0.013c-0.127-0.012-0.24-0.012-0.354-0.012
		h-0.102c-0.038-0.013-0.089-0.013-0.126-0.013c-0.014-0.013-0.038-0.013-0.051,0h-0.366c0.063,0,0.113,0,0.139,0.013
		c0.304,0.012,0.581,0.037,0.859,0.075c0.228,0.038,0.454,0.076,0.669,0.14c0.038,0,0.063,0,0.101,0.012v-0.102
		C666.361,775.312,666.121,775.273,665.881,775.261z"/>
	<path fill="#FFA6DC" stroke="#000000" stroke-miterlimit="10" d="M702.324,782.5h-0.025c0.315,0,0.378,2.248,0.228,3.41
		C702.689,784.748,702.628,782.5,702.324,782.5z M968.079,709.441c-14.508,0-27.413,10.059-35.608,20.059H930.5v-17h-118v-2h-72v2
		h-154v8.867c2-0.366,4.422-0.966,6.783-0.966c10.381,0,19.752,3.099,27.316,9.099h3.9v3.965c7,8.056,13.266,19.346,13.266,31.808
		c0,24.561-19.843,44.461-44.403,44.461c-2.361,0-4.862-0.188-6.862-0.556v5.322h344v-22h3.157
		c8.233,13,20.596,19.494,34.422,19.494c24.75,0,44.841-22.731,44.841-51.27C1012.92,732.199,992.829,709.441,968.079,709.441z
		 M691.685,795.756c-0.113,0.075-0.116,0.271-0.257,0.271c-0.049,0,0.023,0.473-0.002,0.473c0,0,0,0-0.024,0h-1.011
		c-0.127,0-0.127-0.461-0.252-0.461c-0.266,0-0.543-0.211-0.821-0.262c-2.234-0.227-4.116-1.4-5.266-3.181
		c-1.401-2.147-1.427-4.961-0.252-7.563c0,0,0.013,0.007,0.013-0.006c0.189-0.467,0.429-0.918,0.706-1.359
		c0.226-0.378,0.495-0.747,0.777-1.109c0.006-0.009,0.013-0.018,0.019-0.025c0.025-0.05,0.064-0.1,0.113-0.164
		c0.025-0.037,0.052-0.063,0.076-0.087c0.037-0.05,0.102-0.113,0.152-0.164c0.001-0.001,0.001-0.001,0.002-0.003
		c0.29-0.344,0.596-0.683,0.932-1.008c0.177-0.164,0.354-0.316,0.529-0.468c0.19-0.164,0.38-0.315,0.57-0.454
		c0.075-0.063,0.15-0.127,0.227-0.189c0.202-0.152,0.417-0.303,0.644-0.453c0.239-0.166,0.493-0.316,0.745-0.443
		c0.266-0.139,0.53-0.266,0.809-0.391c0.189-0.089,0.378-0.164,0.567-0.24c0.568-0.24,1.162-0.441,1.756-0.605
		c0.037-0.014,0.075-0.014,0.126-0.026c0.089-0.038,0.19-0.063,0.291-0.075c0.228-0.051,0.454-0.102,0.681-0.152
		c0.215-0.05,0.443-0.101,0.671-0.151c0.024,0,0.05-0.013,0.074-0.024c0.014-0.014,0.025-0.014,0.039-0.014
		c0.656-0.164,1.275-0.497,1.83-0.497c0.025-0.013,0.064-0.423,0.077-0.423h0.404c0.757,0,1.034,0.384,2.032,0.574
		c0.063,0.012,0.241,0.027,0.317,0.041c0.253,0.049,0.521,0.494,0.521,0.545V748.5h-29v29h1.151c0.014,0,0.014,0,0.025,0
		c0.025,0,0.051,0.616,0.076,0.616c0.025,0.013,0.063,0.334,0.088,0.372c0.025,0.025,0.076,0.236,0.127,0.3
		c0.075,0.126,0.151,0.32,0.202,0.534c0.037,0.102,0.063,0.224,0.088,0.337c0.063,0.291,0.114,0.624,0.151,0.927
		c0,0.063,0.039,0.129,0.039,0.191c0.013,0.038,0.052,0.09,0.052,0.141c0,0,0,0,0,0.013c0,0.024-0.014,0.051-0.014,0.063
		c0,0.012,0.014,0.025,0,0.037c0.014,0.025,0.014,0.039,0.014,0.051v0.013c0,0.013-0.027,0.405-0.015,0.405c0,0,0,0-0.013,0
		c0,0,0-0.178-0.013-0.178c-0.088,0.013-0.474-0.082-0.474-0.069c0,0.05-0.486,0.019-0.486,0.069v0.379c0,0.013,0,0.013,0,0.037
		c0,0.014,0,0.014,0,0.039v0.291c0,0.012,0.512,0.05,0.512,0.087c0,0.014,0.23,0.026,0.23,0.063c0,0.127,0.14,0.266,0.115,0.392
		c-0.051,0.605-0.088,1.225-0.277,1.831c-0.033,0.152-0.076,0.307-0.12,0.461c-0.072,0.2-0.121,0.401-0.207,0.6
		c0,0.051-0.025,0.089-0.051,0.126c-0.051,0.164-0.113,0.329-0.189,0.479c-0.113,0.202-0.202,0.417-0.303,0.619
		c-0.089,0.189-0.215,0.404-0.328,0.594c-0.139,0.201-0.266,0.404-0.392,0.619c-0.922,1.414-2.185,2.689-3.7,3.687
		c-3.662,2.412-7.854,2.79-10.847,1.364l-0.013-0.013c-0.568-0.253-1.111-0.606-1.578-0.997c-0.468-0.418-0.896-0.885-1.237-1.415
		c-0.366-0.581-0.645-1.2-0.834-1.856c0,0,0.013-0.012,0-0.025c-0.189-0.644-0.278-1.313-0.278-2.008
		c0-0.215,0.014-0.416,0.039-0.631c0-0.076,0-0.139,0.012-0.215c0-0.139,0.025-0.266,0.038-0.379
		c0.025-0.151,0.051-0.303,0.089-0.455c0.025-0.151,0.05-0.302,0.101-0.441c0.038-0.139,0.076-0.291,0.113-0.442
		c0.051-0.177,0.114-0.365,0.178-0.555c0.063-0.19,0.139-0.379,0.228-0.569c0.188-0.467,0.416-0.908,0.693-1.352
		c0.215-0.352,0.442-0.706,0.708-1.034c0.088-0.113,0.177-0.24,0.252-0.354c0.126-0.151,0.24-0.278,0.366-0.417
		c0.278-0.289,0.556-0.58,0.847-0.858c0.366-0.354,0.757-0.669,1.174-0.985c0,0,0.013-0.024,0.025-0.024
		c0.215-0.14,0.417-0.291,0.631-0.431c0.192-0.121,0.388-0.232,0.583-0.348c0.17-0.102,0.341-0.199,0.513-0.292
		c0.262-0.141,0.523-0.278,0.786-0.395c0.146-0.079,0.28-0.132,0.416-0.181c0.329-0.138,0.658-0.291,0.985-0.4
		c0.173-0.063,0.343-0.102,0.515-0.154c0.109-0.031,0.225-0.064,0.332-0.086c0.063-0.013,0.113-0.025,0.177-0.039
		c0.037-0.012,0.088-0.023,0.126-0.036c0.171-0.058,0.32-0.091,0.478-0.126c0.083-0.016,0.165,0.044,0.247,0.029
		c0.167-0.03,0.334-0.006,0.487-0.006h0.013c0.013,0,0.025,0.045,0.038,0.031c0.215-0.025,0.417-0.031,0.632-0.031h0.012
		c0.164,0,0.354,0.494,0.505,0.494c0.039,0,0.064,0.506,0.089,0.506h0.291c0.012,0,0.012,0,0.037,0h1.743
		c0.277,0,1.073-0.398,1.679-0.739c0.304-0.151,0.325-0.301,0.464-0.364c0.051-0.025-0.143-0.035-0.143-0.035V733.5h33v47.531
		c0,0.014,0.007,0.039,0.02,0.063c0.025,0-0.02,0-0.02,0.026c0,0.012,0,0.379,0,0.379h0.444c0,0,0.038-0.089,0.052-0.038
		c0.126,0.29,0.227,0.504,0.303,0.819c0.315,1.073,0.378,2.204,0.228,3.365c-0.052,0.404-0.113,0.773-0.24,1.191
		c-0.102,0.416-0.229,0.797-0.391,1.213c-0.077,0.19-0.178,0.387-0.267,0.588c-0.089,0.189-0.188,0.377-0.304,0.578
		c-0.037,0.102-0.101,0.188-0.162,0.289c-0.052,0.102-0.128,0.203-0.19,0.304c-0.846,1.325-2.032,2.562-3.562,3.572
		c-0.58,0.378-1.149,0.706-1.716,0.997c-0.166,0.076-0.316,0.139-0.469,0.215c-0.454,0.203-0.908,0.379-1.351,0.518
		c-0.013,0-0.038,0.013-0.051,0.013c-0.189,0.063-0.404,0.114-0.606,0.177c-0.037,0.012-0.062,0.012-0.102,0.025
		c-0.101,0.037-0.214,0.051-0.315,0.076c-0.15,0.037-0.29,0.063-0.441,0.088c-0.089,0.013-0.176,0.025-0.277,0.025l-0.285,0.012
		c-0.012,0-0.298,0.014-0.298,0.014s0,0,0,0.012C691.5,795.604,691.71,795.743,691.685,795.756z"/>
	<path fill="#FFA6DC" stroke="#000000" stroke-miterlimit="10" d="M697.636,793.375c-2.291,1.508-4.745,2.25-6.995,2.264
		c-0.12,0-0.239-0.014-0.359-0.014c-2.6-0.057-4.876-1.127-6.173-3.131c-2.491-3.834-0.611-9.627,4.456-12.947
		c2.36-1.553,5.463-2.296,7.725-2.252c1.087,0,3.211,0.204,3.211,0.574V748.5h-29v29h1.152c0.513,4,0.799,2.376,0.858,3.336
		c0,0.096,0.013,0.656,0.013,0.77c0,0.177-0.013,0.598-0.024,0.775c-0.182,2.994-2.265,6.867-5.709,9.133
		c-5.065,3.34-11.18,2.831-13.672-0.984c-2.479-3.832-0.692-9.695,4.387-13.02c1.824-1.207,3.826-1.92,5.649-2.178
		c0.215-0.045,0.44-0.064,0.669-0.078c0.273-0.027,1.499-0.038,1.759-0.038c0.717,0,2.918,0.087,2.918,0.252V733.5h33v47.527
		c0,0.111,0.558,0.221,0.619,0.345C704.18,785.148,702.295,790.311,697.636,793.375z"/>
	<g>
		<path d="M672.523,782.059c0,0.176-0.013,0.371-0.024,0.551c-0.252,3.115-2.313,6.451-5.709,8.676
			c-5.065,3.338-11.18,2.939-13.672-0.879c-2.479-3.832-0.391-9.627,4.686-12.947c1.727-1.142,3.564-1.842,5.351-2.114
			c0.215-0.042,0.44-0.071,0.669-0.084c0.273-0.026,0.547-0.042,0.809-0.042c0.682-0.027,1.335,0.016,1.968,0.139
			c0.204,0.014,0.394,0.054,0.595,0.11c1.729,0.412,3.206,1.318,4.173,2.716c0.035,0.044,0.07,0.098,0.105,0.156
			c0.061,0.094,0.12,0.189,0.18,0.286c0.548,0.946,0.834,2.004,0.858,3.116C672.511,781.837,672.523,781.947,672.523,782.059z"/>
		<path d="M697.932,793.375c-2.358,1.551-4.943,2.291-7.291,2.264c-0.12,0-0.239-0.014-0.359-0.014
			c-2.538-0.123-4.756-1.18-6.019-3.131c-2.492-3.834-0.394-9.627,4.672-12.947c2.265-1.484,4.73-2.239,6.995-2.252
			c0.287,0,0.561,0.013,0.833,0.045c0.7,0.045,1.384,0.136,2.017,0.324c0.201,0.069,0.404,0.139,0.596,0.205
			c1.203,0.453,2.228,1.207,2.979,2.212c0.097,0.11,0.169,0.22,0.252,0.343c0.13,0.192,0.249,0.396,0.346,0.604
			C704.872,784.83,702.735,790.218,697.932,793.375z"/>
		<rect x="666" y="734" width="36" height="14"/>
		<rect x="699" y="741" width="3" height="41"/>
		<rect x="666" y="739" width="5" height="38"/>
	</g>
</g>
<polygon fill="#00FF00" stroke="#000000" stroke-miterlimit="10" points="-140.618,417.574 -225.458,422.794 -228.589,371.89 
	-254.54,373.486 -263.996,219.777 -206.105,216.216 -211.938,121.395 -269.828,124.956 -282.231,-76.663 -256.28,-78.259 
	-253.149,-27.355 -168.309,-32.574 -171.44,-83.478 -149.482,-84.829 -137.079,116.79 -79.189,113.229 -73.356,208.05 
	-131.246,211.61 -121.791,365.32 -143.749,366.671 "/>
<g id="image">
	<path fill="#FCEE21" stroke="#000000" stroke-miterlimit="10" d="M678.035,281.811c0,27.447-22.535,49.734-49.535,49.957V413.5
		h-125v-51h-81v51h-176v-92.069c25-0.224,49.536-22.511,49.536-49.956c0-27.447-24.536-49.734-49.536-49.957V168.5h382v63.354
		C655.5,232.079,678.035,254.365,678.035,281.811z"/>
	<rect x="306.5" y="181.5" fill="#FCEE21" stroke="#000000" stroke-miterlimit="10" width="308" height="171"/>
</g>
<g>
	<rect x="1208.5" y="349.5" fill="#B3B3B3" stroke="#000000" stroke-miterlimit="10" width="97" height="138"/>
	<rect x="1222.5" y="363.5" fill="#D40012" stroke="#000000" stroke-miterlimit="10" width="72" height="72"/>
	<polygon fill="#FFFFFF" stroke="#000000" stroke-miterlimit="10" points="1239.066,426.719 1239.491,371.544 1287.062,399.499 	"/>
	<text transform="matrix(1 0 0 1 1234.0664 453.8525)"><tspan x="0" y="0" font-family="'MyriadPro-Regular'" font-size="21">avvia </tspan><tspan x="0" y="25.2" font-family="'MyriadPro-Regular'" font-size="21">video</tspan></text>
</g>
<g>
	<path fill="#00FF00" stroke="#000000" stroke-miterlimit="10" d="M1160.54,86.016c0,22.558-18.606,40.83-41.145,40.83
		c-3.657,0-6.896-0.484-10.896-1.398V152.5h-132v-133h132v27.086c4-0.915,7.238-1.399,10.896-1.399
		C1141.934,45.187,1160.54,63.459,1160.54,86.016z"/>
	<polygon fill="#FFFFFF" stroke="#000000" stroke-miterlimit="10" points="999.602,136.609 998.713,39.344 1083.39,87.207 	"/>
</g>
<rect x="1002.5" y="291.5" fill="#B3B3B3" stroke="#000000" stroke-miterlimit="10" width="71" height="80"/>
<rect x="1010.5" y="291.5" fill="#808080" stroke="#000000" stroke-miterlimit="10" width="6" height="66"/>
<rect x="1032.5" y="291.5" fill="#808080" stroke="#000000" stroke-miterlimit="10" width="6" height="66"/>
<rect x="1054.5" y="291.5" fill="#808080" stroke="#000000" stroke-miterlimit="10" width="5" height="66"/>
<g>
	<rect x="998.5" y="271.5" fill="#B3B3B3" stroke="#000000" stroke-miterlimit="10" width="78" height="20"/>
	<rect x="1029.5" y="257.5" fill="#B3B3B3" stroke="#000000" stroke-miterlimit="10" width="15" height="14"/>
</g>
</svg>
